<svg width="486.719" height="76.699" viewBox="0 0 486.719 76.699" xmlns="http://www.w3.org/2000/svg"><g id="svgGroup" stroke-linecap="round" fill-rule="evenodd" font-size="9pt" stroke="#000" stroke-width="0.25mm" fill="#ffffff" style="stroke:#000;stroke-width:0.25mm;fill:#ffffff"><path d="M 233.887 50.781 L 238.574 47.168 A 13.415 13.415 0 0 0 240.314 45.59 Q 241.346 44.486 242.334 43.018 A 46.445 46.445 0 0 0 244.116 40.137 A 60.628 60.628 0 0 0 245.85 36.865 Q 247.559 33.398 249.219 29.346 A 447.435 447.435 0 0 0 252.539 20.996 A 349.904 349.904 0 0 1 254.932 14.795 A 130.817 130.817 0 0 1 256.79 10.345 A 116.187 116.187 0 0 1 257.422 8.936 A 105.32 105.32 0 0 1 258.679 6.274 A 82.512 82.512 0 0 1 259.912 3.857 A 38.002 38.002 0 0 1 260.933 2.051 Q 261.627 0.903 262.305 0 A 42.801 42.801 0 0 1 264.741 1.647 A 31.237 31.237 0 0 1 266.846 3.32 Q 268.75 4.98 270.166 6.982 Q 271.582 8.984 272.412 11.572 A 25.192 25.192 0 0 1 273.054 14.014 Q 273.413 15.698 273.633 17.676 A 124.238 124.238 0 0 0 269.629 26.074 A 1164.5 1164.5 0 0 0 265.918 34.766 A 489.346 489.346 0 0 1 261.084 46.045 Q 258.594 51.66 255.566 56.738 Q 252.539 61.816 248.779 66.064 Q 245.02 70.313 240.137 73.242 Q 239.097 73.019 238.283 72.966 A 7.502 7.502 0 0 0 237.793 72.949 A 6.579 6.579 0 0 0 237.035 72.99 Q 236.444 73.059 235.986 73.242 Q 235.254 73.535 234.668 74.023 A 15.367 15.367 0 0 1 228.223 68.506 A 81.677 81.677 0 0 1 225.246 63.669 A 100.84 100.84 0 0 1 223.437 60.352 Q 223.145 59.668 222.803 59.033 A 57.979 57.979 0 0 0 222.263 58.054 A 66.075 66.075 0 0 0 222.07 57.715 L 220.41 54.688 L 219.434 52.832 L 218.066 54.102 L 216.016 55.957 L 214.844 57.129 Q 211.816 59.961 208.691 62.646 A 58.894 58.894 0 0 1 202.148 67.529 A 35.076 35.076 0 0 1 194.873 71.094 A 25.916 25.916 0 0 1 187.711 72.514 A 29.53 29.53 0 0 1 186.621 72.559 Q 185.84 72.168 185.205 71.875 A 43.91 43.91 0 0 1 184.132 71.362 A 39.807 39.807 0 0 1 183.984 71.289 Q 182.265 70.467 181.003 69.701 A 20.206 20.206 0 0 1 180.273 69.238 A 12.883 12.883 0 0 1 179.31 68.523 Q 178.234 67.65 176.942 66.301 A 40.885 40.885 0 0 1 176.855 66.211 A 63.24 63.24 0 0 0 176.123 64.655 A 56.25 56.25 0 0 0 175.879 64.16 A 24.158 24.158 0 0 0 175.391 63.232 A 18.725 18.725 0 0 0 174.902 62.402 Q 173.895 60.388 173.105 58.735 A 160.209 160.209 0 0 1 172.852 58.203 A 29.534 29.534 0 0 1 172.01 56.235 Q 171.615 55.214 171.241 54.061 A 47.922 47.922 0 0 1 171.191 53.906 Q 171.461 52.377 172.104 48.944 A 1639.163 1639.163 0 0 1 172.217 48.34 A 346.311 346.311 0 0 1 173.01 44.25 A 450.931 450.931 0 0 1 173.926 39.795 Q 174.902 35.156 176.025 30.371 Q 176.885 26.707 177.774 23.845 A 60.24 60.24 0 0 1 178.32 22.168 A 230.021 230.021 0 0 1 179.456 19.043 A 280.104 280.104 0 0 1 180.713 15.723 Q 182.031 12.305 183.643 9.424 A 30.732 30.732 0 0 1 185.315 6.75 A 23.529 23.529 0 0 1 187.109 4.492 A 9.386 9.386 0 0 1 188.542 3.188 Q 189.574 2.438 190.686 2.146 A 5.675 5.675 0 0 1 191.113 2.051 A 5.753 5.753 0 0 0 191.714 2.737 A 4.344 4.344 0 0 0 192.383 3.271 Q 192.968 3.647 193.481 3.845 A 4.035 4.035 0 0 0 193.652 3.906 A 41.212 41.212 0 0 0 195.086 5.817 Q 195.826 6.742 196.544 7.513 A 23.887 23.887 0 0 0 196.875 7.861 A 25.531 25.531 0 0 0 198.818 9.659 A 32.902 32.902 0 0 0 200.586 11.035 A 52.761 52.761 0 0 1 199.892 14.022 Q 199.456 15.691 198.877 17.529 Q 197.754 21.094 196.533 24.707 A 836.976 836.976 0 0 1 194.434 30.843 A 756.06 756.06 0 0 1 194.141 31.689 Q 192.969 35.059 192.285 37.5 A 58.843 58.843 0 0 0 191.772 39.321 Q 191.525 40.253 191.278 41.29 A 98.382 98.382 0 0 0 191.113 41.992 Q 190.625 44.141 190.088 47.168 A 143.885 143.885 0 0 0 189.563 50.342 A 185.756 185.756 0 0 0 189.063 53.809 A 7.716 7.716 0 0 0 190.183 53.384 Q 191.097 52.96 192.139 52.246 A 35.895 35.895 0 0 0 194.942 50.121 A 32.538 32.538 0 0 0 195.312 49.805 Q 197.07 48.34 198.73 46.68 A 82.881 82.881 0 0 0 200.565 44.789 Q 201.386 43.914 202.086 43.108 A 46.23 46.23 0 0 0 202.539 42.578 A 40.95 40.95 0 0 0 205.42 38.721 A 96.878 96.878 0 0 0 206.763 36.621 A 120.989 120.989 0 0 0 208.154 34.326 A 1850.173 1850.173 0 0 0 209.292 32.401 Q 210.303 30.688 211.523 28.613 A 298.316 298.316 0 0 0 213.318 25.684 A 354.993 354.993 0 0 0 215.186 22.559 A 135.377 135.377 0 0 1 218.555 17.143 A 123.484 123.484 0 0 1 219.043 16.406 A 136.155 136.155 0 0 1 221.446 12.916 A 112.67 112.67 0 0 1 222.852 10.986 A 36.484 36.484 0 0 1 224.147 9.342 Q 224.778 8.59 225.371 7.983 A 15.988 15.988 0 0 1 226.27 7.129 A 31.073 31.073 0 0 0 227.429 8.228 A 41.346 41.346 0 0 0 228.76 9.375 A 8.722 8.722 0 0 0 231.298 10.857 A 8.233 8.233 0 0 0 231.836 11.035 Q 232.52 12.109 233.154 12.939 A 219.257 219.257 0 0 1 234.228 14.355 A 197.923 197.923 0 0 1 234.375 14.551 A 853.143 853.143 0 0 1 235.12 15.576 A 629.377 629.377 0 0 1 235.791 16.504 A 11.059 11.059 0 0 1 236.722 18.053 A 12.642 12.642 0 0 1 236.914 18.457 A 19.416 19.416 0 0 1 236.839 18.993 Q 236.74 19.635 236.572 20.508 A 2085.234 2085.234 0 0 1 236.316 21.838 A 2717.173 2717.173 0 0 1 236.035 23.291 A 129.968 129.968 0 0 1 235.4 26.367 A 174.583 174.583 0 0 0 234.84 29.027 A 157.452 157.452 0 0 0 234.766 29.395 Q 234.018 32.759 233.556 34.864 A 699.262 699.262 0 0 0 233.301 36.035 Q 232.813 38.281 232.617 39.551 Q 232.483 40.424 232.418 41.112 A 15.261 15.261 0 0 0 232.373 41.699 A 23.535 23.535 0 0 0 232.352 42.181 Q 232.324 42.969 232.324 44.141 A 14.233 14.233 0 0 0 232.52 46.484 A 65.537 65.537 0 0 0 232.959 48.682 A 5.77 5.77 0 0 0 233.887 50.781 Z M 381.382 18.434 A 8.343 8.343 0 0 0 381.348 18.164 A 17.883 17.883 0 0 1 381.003 18.015 A 15.976 15.976 0 0 1 377.979 16.26 Q 376.465 15.137 375.488 13.477 Q 375.578 14.286 375.129 14.06 A 0.937 0.937 0 0 1 375.049 14.014 A 0.838 0.838 0 0 0 375.041 14.009 Q 374.59 13.729 374.243 14.312 A 2.271 2.271 0 0 0 374.121 14.551 A 1.629 1.629 0 0 1 373.464 14.403 Q 373.21 14.291 372.947 14.096 A 4.413 4.413 0 0 1 372.461 13.672 Q 370.154 14.111 368.125 14.427 A 89.474 89.474 0 0 1 365.137 14.844 A 263.403 263.403 0 0 0 363.541 15.042 A 235.447 235.447 0 0 0 358.936 15.674 A 85.332 85.332 0 0 0 352.881 16.797 A 53.923 53.923 0 0 0 351.999 17.001 Q 350.652 17.324 349.158 17.751 A 95.677 95.677 0 0 0 345.898 18.75 A 173.716 173.716 0 0 1 343.799 19.214 A 149.334 149.334 0 0 1 341.797 19.629 A 29.706 29.706 0 0 0 340.373 19.949 A 24.666 24.666 0 0 0 338.184 20.605 A 14.23 14.23 0 0 0 335.107 22.119 Q 333.691 23.047 332.715 24.512 Q 333.203 26.172 333.398 27.783 A 44.843 44.843 0 0 0 333.887 30.908 A 14.283 14.283 0 0 0 333.965 31.287 A 15.554 15.554 0 0 0 334.814 33.936 A 7.3 7.3 0 0 0 335.525 35.235 A 8.843 8.843 0 0 0 336.816 36.719 A 43.055 43.055 0 0 1 336.209 38.277 A 33.785 33.785 0 0 1 335.4 40.088 A 255.629 255.629 0 0 1 333.936 43.066 A 65.245 65.245 0 0 0 332.52 46.094 A 35.764 35.764 0 0 0 332.184 46.887 A 40.494 40.494 0 0 0 331.25 49.414 A 2.084 2.084 0 0 0 331.234 49.412 Q 330.798 49.353 330.605 49.517 A 0.423 0.423 0 0 0 330.469 49.756 A 0.639 0.639 0 0 1 330.138 50.205 A 0.924 0.924 0 0 1 329.883 50.293 A 3.371 3.371 0 0 1 329.891 50.334 Q 330.162 51.678 329.248 52.832 A 6.125 6.125 0 0 0 328.027 55.469 Q 327.734 56.836 327.881 58.496 A 41.558 41.558 0 0 0 328.32 61.865 A 235.43 235.43 0 0 0 328.467 62.711 A 206.925 206.925 0 0 0 328.906 65.137 A 36.249 36.249 0 0 1 328.925 65.236 Q 329.061 65.975 329.153 66.648 A 22.397 22.397 0 0 1 329.297 67.969 A 3.027 3.027 0 0 1 329.874 68.307 A 1.951 1.951 0 0 1 330.615 69.385 Q 330.859 70.313 331.641 70.996 A 9.134 9.134 0 0 0 333.84 72.611 A 11.417 11.417 0 0 0 336.426 73.584 A 26.778 26.778 0 0 0 337.163 73.757 A 29.262 29.262 0 0 0 342.578 74.414 Q 345.801 74.512 348.926 74.121 A 87.363 87.363 0 0 0 350.342 73.933 Q 352.577 73.616 354.297 73.242 A 4.237 4.237 0 0 1 354.965 73.292 A 3.072 3.072 0 0 1 355.664 73.486 A 1.685 1.685 0 0 0 355.989 73.584 Q 356.334 73.651 356.758 73.6 A 3.861 3.861 0 0 0 357.129 73.535 A 318.693 318.693 0 0 1 360.583 72.9 A 237.107 237.107 0 0 1 363.721 72.363 A 35.107 35.107 0 0 0 366.052 71.902 A 27.942 27.942 0 0 0 369.141 70.996 Q 371.582 70.117 373.486 68.408 Q 374.677 67.34 375.695 65.681 A 20.164 20.164 0 0 0 376.855 63.477 A 1.685 1.685 0 0 1 376.741 63.492 Q 376.245 63.54 376.025 63.232 A 1.882 1.882 0 0 1 375.815 62.848 A 2.448 2.448 0 0 1 375.684 62.402 A 13.662 13.662 0 0 0 375.618 62.092 A 16.166 16.166 0 0 0 375.439 61.377 A 2.054 2.054 0 0 0 374.902 60.449 A 2.807 2.807 0 0 1 374.866 60.453 Q 374.659 60.473 374.469 60.461 A 1.749 1.749 0 0 1 373.438 60.059 A 8.325 8.325 0 0 1 373.148 59.805 A 9.447 9.447 0 0 1 372.314 58.936 A 58.873 58.873 0 0 1 371.765 58.276 A 70.524 70.524 0 0 1 371.191 57.568 A 3.808 3.808 0 0 0 370.906 57.249 A 3.033 3.033 0 0 0 369.824 56.543 Q 367.578 57.324 364.893 57.666 A 15.407 15.407 0 0 0 362.683 58.105 A 11.399 11.399 0 0 0 360.254 59.082 A 58.857 58.857 0 0 0 359.383 59.061 Q 357.632 59.032 356.254 59.122 A 22.2 22.2 0 0 0 355.078 59.229 A 688.028 688.028 0 0 0 351.074 59.717 A 46.526 46.526 0 0 1 349.83 59.855 A 54.997 54.997 0 0 1 346.924 60.059 A 15.464 15.464 0 0 1 346.832 60.062 Q 345.351 60.119 343.372 59.916 A 45.557 45.557 0 0 1 341.406 59.668 A 42.655 42.655 0 0 1 341.414 59.647 A 38.544 38.544 0 0 1 343.652 54.687 Q 344.922 52.344 346.484 50.293 A 6.504 6.504 0 0 0 347.594 50.553 Q 348.182 50.64 348.838 50.64 A 10.303 10.303 0 0 0 349.17 50.635 A 8.424 8.424 0 0 1 349.442 50.63 Q 350.07 50.63 350.618 50.728 A 4.759 4.759 0 0 1 351.758 51.074 A 1.933 1.933 0 0 1 351.964 50.962 Q 352.594 50.668 353.563 50.739 A 6.207 6.207 0 0 1 353.955 50.781 Q 354.865 50.907 355.513 50.75 A 2.152 2.152 0 0 0 356.152 50.488 A 2.823 2.823 0 0 0 356.27 50.572 Q 356.466 50.704 356.62 50.753 A 0.558 0.558 0 0 0 356.787 50.781 L 357.52 50.781 A 17.074 17.074 0 0 0 358.23 50.796 Q 358.953 50.796 359.631 50.732 A 12.014 12.014 0 0 0 361.768 50.342 A 19.381 19.381 0 0 0 365.381 48.926 A 25.87 25.87 0 0 0 368.652 46.924 A 182.684 182.684 0 0 1 371.777 44.727 Q 372.061 44.016 372.061 43.332 A 3.263 3.263 0 0 0 372.021 42.822 Q 371.875 41.895 371.484 41.113 Q 371.194 41.142 370.926 41.124 A 2.539 2.539 0 0 1 369.775 40.771 A 6.601 6.601 0 0 1 369.233 40.408 A 7.933 7.933 0 0 1 368.359 39.648 A 57.116 57.116 0 0 1 366.992 38.232 A 10.719 10.719 0 0 0 366.394 37.638 A 8.218 8.218 0 0 0 365.625 37.012 Q 365.527 36.621 365.723 36.475 Q 365.894 36.346 365.84 35.956 A 1.938 1.938 0 0 0 365.82 35.84 Q 361.816 35.938 357.666 36.328 Q 354.961 36.583 352.567 36.547 A 35.068 35.068 0 0 1 350.098 36.426 A 1.995 1.995 0 0 1 350.009 36.22 Q 349.813 35.685 349.854 34.912 Q 349.902 33.984 349.512 33.105 A 36.179 36.179 0 0 1 351.27 32.568 A 3.875 3.875 0 0 0 351.563 32.474 A 3.171 3.171 0 0 0 352.734 31.738 A 11.746 11.746 0 0 0 353.273 31.78 Q 354.306 31.836 355.04 31.671 A 3.18 3.18 0 0 0 355.713 31.445 A 2.496 2.496 0 0 1 356.799 31.201 Q 357.088 31.201 357.393 31.263 A 3.858 3.858 0 0 1 358.008 31.445 A 21.954 21.954 0 0 1 360.027 30.358 A 17.871 17.871 0 0 1 364.502 28.906 A 926.369 926.369 0 0 1 370.898 27.783 A 26.386 26.386 0 0 0 371.673 27.638 A 23.332 23.332 0 0 0 376.709 26.025 Q 378.408 25.253 379.854 23.64 A 15.157 15.157 0 0 0 381.445 21.484 A 9.252 9.252 0 0 1 381.38 21.246 Q 381.25 20.738 381.25 20.459 A 4.416 4.416 0 0 1 381.257 20.21 A 3.573 3.573 0 0 1 381.299 19.824 A 24.755 24.755 0 0 0 381.348 19.519 A 31.019 31.019 0 0 0 381.396 19.189 Q 381.435 18.919 381.382 18.434 Z M 486.655 18.434 A 8.343 8.343 0 0 0 486.621 18.164 A 17.883 17.883 0 0 1 486.276 18.015 A 15.976 15.976 0 0 1 483.252 16.26 Q 481.738 15.137 480.762 13.477 Q 480.852 14.286 480.403 14.06 A 0.937 0.937 0 0 1 480.322 14.014 A 0.838 0.838 0 0 0 480.314 14.009 Q 479.864 13.729 479.517 14.312 A 2.271 2.271 0 0 0 479.395 14.551 A 1.629 1.629 0 0 1 478.737 14.403 Q 478.483 14.291 478.22 14.096 A 4.413 4.413 0 0 1 477.734 13.672 Q 475.427 14.111 473.398 14.427 A 89.474 89.474 0 0 1 470.41 14.844 A 263.403 263.403 0 0 0 468.814 15.042 A 235.447 235.447 0 0 0 464.209 15.674 A 85.332 85.332 0 0 0 458.154 16.797 A 53.923 53.923 0 0 0 457.273 17.001 Q 455.926 17.324 454.431 17.751 A 95.677 95.677 0 0 0 451.172 18.75 A 173.716 173.716 0 0 1 449.072 19.214 A 149.334 149.334 0 0 1 447.07 19.629 A 29.706 29.706 0 0 0 445.647 19.949 A 24.666 24.666 0 0 0 443.457 20.605 A 14.23 14.23 0 0 0 440.381 22.119 Q 438.965 23.047 437.988 24.512 Q 438.477 26.172 438.672 27.783 A 44.843 44.843 0 0 0 439.16 30.908 A 14.283 14.283 0 0 0 439.239 31.287 A 15.554 15.554 0 0 0 440.088 33.936 A 7.3 7.3 0 0 0 440.798 35.235 A 8.843 8.843 0 0 0 442.09 36.719 A 43.055 43.055 0 0 1 441.482 38.277 A 33.785 33.785 0 0 1 440.674 40.088 A 255.629 255.629 0 0 1 439.209 43.066 A 65.245 65.245 0 0 0 437.793 46.094 A 35.764 35.764 0 0 0 437.457 46.887 A 40.494 40.494 0 0 0 436.523 49.414 A 2.084 2.084 0 0 0 436.507 49.412 Q 436.071 49.353 435.878 49.517 A 0.423 0.423 0 0 0 435.742 49.756 A 0.639 0.639 0 0 1 435.411 50.205 A 0.924 0.924 0 0 1 435.156 50.293 A 3.371 3.371 0 0 1 435.165 50.334 Q 435.435 51.678 434.521 52.832 A 6.125 6.125 0 0 0 433.301 55.469 Q 433.008 56.836 433.154 58.496 A 41.558 41.558 0 0 0 433.594 61.865 A 235.43 235.43 0 0 0 433.74 62.711 A 206.925 206.925 0 0 0 434.18 65.137 A 36.249 36.249 0 0 1 434.198 65.236 Q 434.335 65.975 434.427 66.648 A 22.397 22.397 0 0 1 434.57 67.969 A 3.027 3.027 0 0 1 435.148 68.307 A 1.951 1.951 0 0 1 435.889 69.385 Q 436.133 70.313 436.914 70.996 A 9.134 9.134 0 0 0 439.113 72.611 A 11.417 11.417 0 0 0 441.699 73.584 A 26.778 26.778 0 0 0 442.436 73.757 A 29.262 29.262 0 0 0 447.852 74.414 Q 451.074 74.512 454.199 74.121 A 87.363 87.363 0 0 0 455.616 73.933 Q 457.851 73.616 459.57 73.242 A 4.237 4.237 0 0 1 460.238 73.292 A 3.072 3.072 0 0 1 460.938 73.486 A 1.685 1.685 0 0 0 461.263 73.584 Q 461.607 73.651 462.032 73.6 A 3.861 3.861 0 0 0 462.402 73.535 A 318.693 318.693 0 0 1 465.857 72.9 A 237.107 237.107 0 0 1 468.994 72.363 A 35.107 35.107 0 0 0 471.326 71.902 A 27.942 27.942 0 0 0 474.414 70.996 Q 476.855 70.117 478.76 68.408 Q 479.95 67.34 480.968 65.681 A 20.164 20.164 0 0 0 482.129 63.477 A 1.685 1.685 0 0 1 482.014 63.492 Q 481.518 63.54 481.299 63.232 A 1.882 1.882 0 0 1 481.089 62.848 A 2.448 2.448 0 0 1 480.957 62.402 A 13.662 13.662 0 0 0 480.891 62.092 A 16.166 16.166 0 0 0 480.713 61.377 A 2.054 2.054 0 0 0 480.176 60.449 A 2.807 2.807 0 0 1 480.139 60.453 Q 479.932 60.473 479.742 60.461 A 1.749 1.749 0 0 1 478.711 60.059 A 8.325 8.325 0 0 1 478.421 59.805 A 9.447 9.447 0 0 1 477.588 58.936 A 58.873 58.873 0 0 1 477.039 58.276 A 70.524 70.524 0 0 1 476.465 57.568 A 3.808 3.808 0 0 0 476.179 57.249 A 3.033 3.033 0 0 0 475.098 56.543 Q 472.852 57.324 470.166 57.666 A 15.407 15.407 0 0 0 467.956 58.105 A 11.399 11.399 0 0 0 465.527 59.082 A 58.857 58.857 0 0 0 464.656 59.061 Q 462.905 59.032 461.527 59.122 A 22.2 22.2 0 0 0 460.352 59.229 A 688.028 688.028 0 0 0 456.348 59.717 A 46.526 46.526 0 0 1 455.103 59.855 A 54.997 54.997 0 0 1 452.197 60.059 A 15.464 15.464 0 0 1 452.105 60.062 Q 450.625 60.119 448.645 59.916 A 45.557 45.557 0 0 1 446.68 59.668 A 42.655 42.655 0 0 1 446.687 59.647 A 38.544 38.544 0 0 1 448.926 54.687 Q 450.195 52.344 451.758 50.293 A 6.504 6.504 0 0 0 452.867 50.553 Q 453.455 50.64 454.111 50.64 A 10.303 10.303 0 0 0 454.443 50.635 A 8.424 8.424 0 0 1 454.715 50.63 Q 455.343 50.63 455.891 50.728 A 4.759 4.759 0 0 1 457.031 51.074 A 1.933 1.933 0 0 1 457.237 50.962 Q 457.867 50.668 458.837 50.739 A 6.207 6.207 0 0 1 459.229 50.781 Q 460.139 50.907 460.787 50.75 A 2.152 2.152 0 0 0 461.426 50.488 A 2.823 2.823 0 0 0 461.543 50.572 Q 461.739 50.704 461.894 50.753 A 0.558 0.558 0 0 0 462.061 50.781 L 462.793 50.781 A 17.074 17.074 0 0 0 463.504 50.796 Q 464.226 50.796 464.904 50.732 A 12.014 12.014 0 0 0 467.041 50.342 A 19.381 19.381 0 0 0 470.654 48.926 A 25.87 25.87 0 0 0 473.926 46.924 A 182.684 182.684 0 0 1 477.051 44.727 Q 477.335 44.016 477.335 43.332 A 3.263 3.263 0 0 0 477.295 42.822 Q 477.148 41.895 476.758 41.113 Q 476.468 41.142 476.199 41.124 A 2.539 2.539 0 0 1 475.049 40.771 A 6.601 6.601 0 0 1 474.506 40.408 A 7.933 7.933 0 0 1 473.633 39.648 A 57.116 57.116 0 0 1 472.266 38.232 A 10.719 10.719 0 0 0 471.667 37.638 A 8.218 8.218 0 0 0 470.898 37.012 Q 470.801 36.621 470.996 36.475 Q 471.167 36.346 471.114 35.956 A 1.938 1.938 0 0 0 471.094 35.84 Q 467.09 35.938 462.939 36.328 Q 460.234 36.583 457.84 36.547 A 35.068 35.068 0 0 1 455.371 36.426 A 1.995 1.995 0 0 1 455.283 36.22 Q 455.086 35.685 455.127 34.912 Q 455.176 33.984 454.785 33.105 A 36.179 36.179 0 0 1 456.543 32.568 A 3.875 3.875 0 0 0 456.836 32.474 A 3.171 3.171 0 0 0 458.008 31.738 A 11.746 11.746 0 0 0 458.547 31.78 Q 459.579 31.836 460.313 31.671 A 3.18 3.18 0 0 0 460.986 31.445 A 2.496 2.496 0 0 1 462.073 31.201 Q 462.362 31.201 462.666 31.263 A 3.858 3.858 0 0 1 463.281 31.445 A 21.954 21.954 0 0 1 465.3 30.358 A 17.871 17.871 0 0 1 469.775 28.906 A 926.369 926.369 0 0 1 476.172 27.783 A 26.386 26.386 0 0 0 476.946 27.638 A 23.332 23.332 0 0 0 481.982 26.025 Q 483.682 25.253 485.127 23.64 A 15.157 15.157 0 0 0 486.719 21.484 A 9.252 9.252 0 0 1 486.654 21.246 Q 486.523 20.738 486.523 20.459 A 4.416 4.416 0 0 1 486.53 20.21 A 3.573 3.573 0 0 1 486.572 19.824 A 24.755 24.755 0 0 0 486.621 19.519 A 31.019 31.019 0 0 0 486.67 19.189 Q 486.709 18.919 486.655 18.434 Z M 1.465 65.332 L 0 63.867 L 1.27 62.891 L 1.367 60.84 A 238.311 238.311 0 0 1 5.752 50.789 A 217.051 217.051 0 0 1 6.396 49.414 A 835.369 835.369 0 0 1 11.463 38.903 A 911.555 911.555 0 0 1 11.816 38.184 A 194.016 194.016 0 0 1 13.623 34.473 Q 14.551 32.617 15.43 30.664 A 3.321 3.321 0 0 1 15.336 30.01 A 3.826 3.826 0 0 1 15.332 29.834 Q 15.332 29.492 15.45 29.062 A 4.92 4.92 0 0 1 15.527 28.809 A 45.203 45.203 0 0 0 16.477 27.399 Q 17.206 26.27 17.725 25.293 A 74.317 74.317 0 0 0 19.336 22.07 A 71.726 71.726 0 0 1 21.24 18.164 A 20.536 20.536 0 0 1 23.08 15.289 A 23.838 23.838 0 0 1 23.828 14.355 L 24.512 13.379 L 25.586 13.477 A 6.292 6.292 0 0 1 26.361 13.153 A 6.903 6.903 0 0 1 26.416 13.135 A 2.491 2.491 0 0 1 26.78 13.046 Q 26.967 13.013 27.183 12.999 A 5.496 5.496 0 0 1 27.539 12.988 L 29.297 13.281 A 17.107 17.107 0 0 0 34.932 9.12 A 19.527 19.527 0 0 0 35.01 9.033 Q 37.422 6.337 39.88 2.588 A 75.273 75.273 0 0 0 40.039 2.344 L 41.211 0.684 L 42.773 1.66 A 3.068 3.068 0 0 0 43.094 1.825 Q 43.454 1.986 43.991 2.147 A 14.104 14.104 0 0 0 44.336 2.246 A 40.372 40.372 0 0 1 45.859 2.695 A 47.132 47.132 0 0 1 46.582 2.93 A 51.664 51.664 0 0 1 50.586 4.053 A 10.104 10.104 0 0 1 51.927 4.591 Q 52.942 5.09 53.613 5.762 L 54.102 6.641 A 157.921 157.921 0 0 1 54.285 7.666 A 116.497 116.497 0 0 1 54.443 8.594 A 33.458 33.458 0 0 0 54.785 10.352 A 95.792 95.792 0 0 1 55.469 14.404 A 36.956 36.956 0 0 1 55.713 16.516 A 49.042 49.042 0 0 1 55.859 18.848 A 140.606 140.606 0 0 1 56.787 22.803 A 216.264 216.264 0 0 1 57.617 26.758 A 109.768 109.768 0 0 0 58.405 30.869 A 97.331 97.331 0 0 0 58.691 32.178 Q 59.277 34.766 60.254 37.109 A 15.436 15.436 0 0 1 60.593 37.113 Q 61.255 37.127 61.42 37.204 A 0.233 0.233 0 0 1 61.426 37.207 A 7.306 7.306 0 0 1 62.781 36.798 A 10.065 10.065 0 0 1 64.16 36.621 L 65.43 36.523 L 65.82 37.695 A 3.486 3.486 0 0 0 66.071 38.025 A 4.457 4.457 0 0 0 66.309 38.281 A 5.721 5.721 0 0 0 66.669 38.611 A 7.32 7.32 0 0 0 66.992 38.867 A 8.011 8.011 0 0 1 67.805 38.957 Q 68.761 39.116 69.287 39.502 A 13.298 13.298 0 0 1 69.88 39.962 Q 70.145 40.18 70.365 40.389 A 7.354 7.354 0 0 1 70.508 40.527 Q 70.657 40.677 70.864 40.855 A 10.528 10.528 0 0 0 70.996 40.967 A 4.714 4.714 0 0 0 71.166 41.102 Q 71.323 41.221 71.445 41.288 A 1.208 1.208 0 0 0 71.484 41.309 L 73.242 41.992 L 72.266 43.848 A 12.052 12.052 0 0 1 70.911 45.874 Q 70.195 46.75 69.264 47.607 A 20.588 20.588 0 0 1 68.994 47.852 A 20.145 20.145 0 0 1 64.062 51.074 Q 64.258 51.758 64.307 52.344 A 6.566 6.566 0 0 0 64.37 52.852 Q 64.415 53.124 64.483 53.428 A 12.653 12.653 0 0 0 64.551 53.711 Q 64.941 55.664 65.186 57.764 A 16.775 16.775 0 0 1 65.297 59.703 A 18.597 18.597 0 0 1 65.137 62.109 A 25.465 25.465 0 0 1 63.783 65.073 A 21.089 21.089 0 0 1 62.842 66.65 Q 61.523 68.652 59.717 70.264 Q 57.91 71.875 55.664 72.9 A 12.376 12.376 0 0 1 50.977 74.023 A 12.633 12.633 0 0 1 50.265 73.851 Q 49.431 73.621 48.975 73.34 A 12.74 12.74 0 0 1 48.376 72.949 A 9.788 9.788 0 0 1 47.852 72.559 Q 47.175 72.051 46.717 71.836 A 2.545 2.545 0 0 0 46.582 71.777 L 45.313 71.191 L 45.703 69.727 A 2.271 2.271 0 0 0 45.8 69.398 Q 45.838 69.216 45.838 69.047 A 1.341 1.341 0 0 0 45.654 68.359 A 3.166 3.166 0 0 0 45.413 68.01 Q 45.019 67.506 44.238 66.797 A 4.382 4.382 0 0 1 43.688 66.309 A 3.905 3.905 0 0 1 43.555 66.162 A 11.263 11.263 0 0 0 43.237 65.808 A 15.305 15.305 0 0 0 42.871 65.43 L 40.918 63.184 L 44.141 62.305 Q 47.07 61.523 48.047 60.303 Q 48.942 59.184 48.853 56.465 A 17.231 17.231 0 0 0 48.828 55.957 Q 46.387 55.469 44.824 55.811 A 108.358 108.358 0 0 0 41.699 56.543 A 84.972 84.972 0 0 1 37.574 57.513 A 77.975 77.975 0 0 1 37.305 57.568 A 21.516 21.516 0 0 1 34.504 57.943 A 26.873 26.873 0 0 1 32.617 58.008 A 21.184 21.184 0 0 1 30.354 57.882 A 25.533 25.533 0 0 1 29.102 57.715 L 28.027 57.617 L 27.734 56.543 A 0.387 0.387 0 0 0 27.701 56.393 Q 27.652 56.276 27.531 56.145 A 1.596 1.596 0 0 0 27.49 56.104 L 27.051 55.664 Q 26.723 55.27 26.306 54.7 A 36.913 36.913 0 0 1 25.879 54.102 Q 25.195 53.125 25.586 51.66 A 5.124 5.124 0 0 1 24.941 50.208 A 4.634 4.634 0 0 1 24.805 49.414 Q 24.414 50.195 24.17 50.928 A 35.238 35.238 0 0 0 23.831 51.999 A 31.111 31.111 0 0 0 23.73 52.344 L 23.34 53.613 L 22.07 53.809 Q 21.928 53.951 21.812 54.196 A 2.581 2.581 0 0 0 21.729 54.395 Q 21.613 54.702 21.649 54.889 A 0.355 0.355 0 0 0 21.68 54.98 L 22.07 56.055 L 21.094 56.934 Q 20.898 57.227 20.605 57.422 Q 20.313 57.617 20.117 57.813 A 13.527 13.527 0 0 1 19.585 59.848 A 12.708 12.708 0 0 1 19.58 59.863 A 47.591 47.591 0 0 1 18.848 61.816 A 280.875 280.875 0 0 0 18.031 64.476 A 253.405 253.405 0 0 0 17.92 64.844 A 10.15 10.15 0 0 0 17.48 67.773 L 17.09 69.043 A 3.497 3.497 0 0 1 16.466 69.796 A 3.001 3.001 0 0 1 15.869 70.215 A 19.503 19.503 0 0 1 14.885 70.706 A 16.53 16.53 0 0 1 14.453 70.898 A 8.322 8.322 0 0 0 14.001 71.094 Q 13.525 71.318 13.241 71.542 A 1.794 1.794 0 0 0 13.086 71.68 L 12.793 72.949 L 11.328 73.145 Q 10.159 73.414 9.611 73.518 A 11.421 11.421 0 0 1 9.521 73.535 A 5.78 5.78 0 0 1 8.957 73.608 Q 8.667 73.631 8.344 73.633 A 9.47 9.47 0 0 1 8.301 73.633 L 7.031 73.535 A 67.708 67.708 0 0 0 6.473 72.983 Q 5.676 72.205 5.127 71.729 A 7.73 7.73 0 0 0 4.004 70.925 A 9.308 9.308 0 0 0 3.418 70.605 L 2.832 69.824 Q 2.441 69.043 2.344 68.408 A 10.313 10.313 0 0 0 2.153 67.471 A 12.023 12.023 0 0 0 2.051 67.09 A 8.453 8.453 0 0 0 1.941 66.504 Q 1.81 65.93 1.624 65.579 A 1.58 1.58 0 0 0 1.465 65.332 Z M 92.773 55.371 A 1.743 1.743 0 0 0 91.599 56.217 A 2.215 2.215 0 0 0 91.504 56.396 A 26.967 26.967 0 0 0 90.771 58.105 A 29.994 29.994 0 0 1 90.43 58.948 A 23.802 23.802 0 0 1 90.088 59.717 A 1.625 1.625 0 0 1 89.869 60.071 A 1.002 1.002 0 0 1 89.062 60.449 A 2.936 2.936 0 0 1 88.787 61.39 A 2.693 2.693 0 0 1 88.525 61.816 A 16.071 16.071 0 0 0 87.695 63.037 Q 87.305 63.672 87.109 64.404 Q 86.914 65.137 87.305 66.113 A 2.468 2.468 0 0 0 86.408 67.434 A 3.311 3.311 0 0 0 86.328 67.773 A 33.24 33.24 0 0 1 86.008 69.33 A 29.415 29.415 0 0 1 85.889 69.824 A 4.336 4.336 0 0 1 85.506 70.83 A 3.677 3.677 0 0 1 85.059 71.484 A 1.493 1.493 0 0 1 84.467 71.893 Q 83.912 72.116 83.031 72.077 A 6.563 6.563 0 0 1 82.91 72.07 A 1.781 1.781 0 0 0 82.842 72.168 Q 82.643 72.474 82.813 72.559 A 0.287 0.287 0 0 1 82.915 72.652 Q 83.024 72.805 83.091 73.163 A 3.678 3.678 0 0 1 83.105 73.242 A 4.802 4.802 0 0 0 82.777 73.194 Q 82.069 73.115 81.636 73.312 A 1.157 1.157 0 0 0 81.494 73.389 Q 80.957 73.73 80.176 73.828 A 6.443 6.443 0 0 1 77.1 71.777 Q 75.879 70.313 74.951 68.506 A 40.84 40.84 0 0 1 73.291 64.844 A 50.672 50.672 0 0 0 72.659 63.314 Q 72.36 62.621 72.068 62.015 A 28.478 28.478 0 0 0 71.875 61.621 A 4.873 4.873 0 0 0 72.048 60.507 Q 72.065 60.009 71.973 59.521 A 5.217 5.217 0 0 0 71.746 58.69 Q 71.564 58.197 71.289 57.813 A 1319.187 1319.187 0 0 1 76.294 47.314 A 1613.201 1613.201 0 0 1 81.738 36.133 Q 87.402 24.609 92.48 13.379 A 48.97 48.97 0 0 1 96.924 15.381 A 22.957 22.957 0 0 1 100.686 17.776 A 21.233 21.233 0 0 1 100.928 17.969 Q 102.734 19.434 104.004 21.338 A 10.75 10.75 0 0 1 105.664 25.586 A 2.121 2.121 0 0 1 105.604 25.745 Q 105.432 26.15 105.225 26.025 A 0.381 0.381 0 0 0 105.157 25.993 Q 104.989 25.933 104.846 26.092 A 0.698 0.698 0 0 0 104.785 26.172 A 7.313 7.313 0 0 1 104.94 26.371 Q 105.186 26.703 105.225 26.855 A 0.803 0.803 0 0 1 105.249 27.051 A 0.803 0.803 0 0 1 105.225 27.246 Q 105.181 27.423 105.176 27.718 A 4.494 4.494 0 0 0 105.176 27.783 Q 105.176 28.125 105.469 28.711 Q 105.253 28.657 105.112 28.692 A 0.312 0.312 0 0 0 104.932 28.809 A 0.235 0.235 0 0 1 104.795 28.896 Q 104.621 28.938 104.297 28.809 Q 104.654 29.791 104.562 30.447 A 1.695 1.695 0 0 1 104.541 30.566 A 4.903 4.903 0 0 1 104.316 31.325 A 4.02 4.02 0 0 1 104.102 31.787 Q 103.809 32.324 103.613 32.959 A 1.764 1.764 0 0 0 103.544 33.316 Q 103.501 33.781 103.66 34.388 A 5.27 5.27 0 0 0 103.711 34.57 A 0.934 0.934 0 0 0 103.546 34.584 Q 103.373 34.615 103.271 34.717 A 2.165 2.165 0 0 0 103.124 34.879 A 1.695 1.695 0 0 0 103.027 35.01 A 1.743 1.743 0 0 1 102.902 35.175 A 2.229 2.229 0 0 1 102.783 35.303 Q 102.647 35.439 102.385 35.364 A 0.955 0.955 0 0 1 102.344 35.352 A 23.825 23.825 0 0 1 102.563 38.574 A 23.654 23.654 0 0 1 102.539 39.648 Q 102.441 41.797 102.393 43.994 Q 102.346 46.1 102.434 48.385 A 82.4 82.4 0 0 0 102.441 48.584 Q 102.539 50.977 103.125 53.516 A 16.738 16.738 0 0 0 107.903 49.409 A 16.012 16.012 0 0 0 108.74 48.242 A 29.896 29.896 0 0 0 111.544 42.73 A 34.691 34.691 0 0 0 112.158 41.016 A 50.043 50.043 0 0 0 113.779 34.68 A 58.005 58.005 0 0 0 114.16 32.422 Q 114.844 27.832 115.625 23.047 Q 116.504 22.168 116.992 20.898 Q 117.48 19.629 117.871 18.213 L 118.652 15.381 A 15.12 15.12 0 0 1 119.249 13.627 A 12.757 12.757 0 0 1 119.629 12.793 Q 121.094 12.988 122.119 13.721 A 18.034 18.034 0 0 1 124.023 15.283 Q 124.902 16.113 125.879 16.846 A 4.557 4.557 0 0 0 127.211 17.526 A 6.219 6.219 0 0 0 128.32 17.773 A 71.959 71.959 0 0 1 129.936 20.159 A 62.074 62.074 0 0 1 130.469 20.996 A 9.008 9.008 0 0 1 131.738 24.316 A 5.912 5.912 0 0 0 131.107 25.713 A 6.881 6.881 0 0 0 131.006 26.074 A 43.582 43.582 0 0 1 130.469 28.027 Q 130.176 29.004 129.688 29.834 A 4.231 4.231 0 0 1 128.636 31.022 A 5.064 5.064 0 0 1 128.32 31.25 A 58.829 58.829 0 0 1 127.991 33.679 A 45.236 45.236 0 0 1 127.588 35.889 A 889.582 889.582 0 0 1 126.709 40.039 A 54.766 54.766 0 0 0 125.995 44.15 A 59.5 59.5 0 0 0 125.977 44.287 A 24.947 24.947 0 0 0 125.788 46.444 Q 125.757 47.12 125.757 47.83 A 34.888 34.888 0 0 0 125.781 49.121 A 3102.902 3102.902 0 0 0 124.976 51.44 A 3725.937 3725.937 0 0 0 124.121 53.906 A 59.491 59.491 0 0 0 123.427 56.034 Q 123.128 57.016 122.899 57.91 A 35.222 35.222 0 0 0 122.754 58.496 Q 121.191 59.766 120.313 61.523 A 91.493 91.493 0 0 1 118.457 65.039 Q 118.081 65.415 117.976 65.248 A 0.165 0.165 0 0 1 117.969 65.234 A 0.287 0.287 0 0 0 117.875 65.132 Q 117.723 65.023 117.364 64.955 A 3.678 3.678 0 0 0 117.285 64.941 Q 117.377 65.31 117.295 65.505 A 0.377 0.377 0 0 1 117.285 65.527 A 1.305 1.305 0 0 1 117.046 65.865 A 1.235 1.235 0 0 1 117.041 65.869 A 0.585 0.585 0 0 0 116.93 66.029 Q 116.873 66.146 116.846 66.309 A 0.733 0.733 0 0 0 116.836 66.405 Q 116.827 66.675 116.989 67.082 A 3.582 3.582 0 0 0 116.992 67.09 A 7.737 7.737 0 0 0 114.551 68.75 A 18.664 18.664 0 0 1 112.256 70.703 Q 111.035 71.582 109.326 71.875 A 4.781 4.781 0 0 1 108.704 71.938 Q 107.144 71.999 104.883 71.191 A 37.586 37.586 0 0 1 97.803 64.453 A 29.798 29.798 0 0 1 94.249 58.823 A 37.101 37.101 0 0 1 92.773 55.371 Z M 318.689 64.414 A 13.157 13.157 0 0 0 318.652 63.672 A 6.736 6.736 0 0 1 318.38 63.102 Q 317.92 62.001 318.115 61.182 A 3.487 3.487 0 0 0 318.209 60.371 Q 318.209 60.08 318.163 59.778 A 4.797 4.797 0 0 0 317.969 58.984 A 6.113 6.113 0 0 0 318.298 58.627 A 6.822 6.822 0 0 0 319.141 57.373 A 17.776 17.776 0 0 0 320.02 55.42 Q 320.41 54.395 320.801 53.418 Q 321.191 52.441 321.875 51.66 Q 322.266 47.754 323.193 44.287 A 126.125 126.125 0 0 0 323.251 44.07 A 137.105 137.105 0 0 0 324.902 37.109 A 359.929 359.929 0 0 0 324.658 30.957 A 116.596 116.596 0 0 0 324.619 30.203 A 106.176 106.176 0 0 0 324.219 25.098 A 9.795 9.795 0 0 1 321.826 22.314 Q 320.898 20.703 320.068 18.896 A 175.498 175.498 0 0 1 318.457 15.283 A 19.802 19.802 0 0 0 316.602 11.914 Q 314.844 12.305 313.623 13.623 A 8.196 8.196 0 0 0 312.853 14.593 A 9.222 9.222 0 0 0 311.768 16.797 A 14.074 14.074 0 0 0 311.035 20.703 A 14.257 14.257 0 0 0 311.019 21.381 A 12.633 12.633 0 0 0 311.426 24.609 A 1.996 1.996 0 0 0 311.311 24.646 A 1.467 1.467 0 0 0 310.449 25.391 A 2.883 2.883 0 0 1 309.668 26.367 A 23.429 23.429 0 0 1 309.919 29.763 A 21.922 21.922 0 0 1 309.473 34.18 A 103.213 103.213 0 0 0 308.203 41.797 A 23.666 23.666 0 0 1 307.406 42.196 A 26.457 26.457 0 0 1 303.76 43.604 Q 301.367 44.336 298.828 44.922 A 141.004 141.004 0 0 1 293.75 45.996 A 99.431 99.431 0 0 0 293.118 46.12 A 89.84 89.84 0 0 0 288.867 47.07 A 2.82 2.82 0 0 0 288.901 46.975 Q 289.081 46.437 288.872 46.262 A 0.35 0.35 0 0 0 288.721 46.191 A 0.639 0.639 0 0 1 288.271 45.86 A 0.924 0.924 0 0 1 288.184 45.605 A 63.856 63.856 0 0 0 288.433 44.501 Q 288.559 43.916 288.691 43.263 A 123.551 123.551 0 0 0 289.014 41.602 A 325.583 325.583 0 0 0 289.233 40.417 A 366.061 366.061 0 0 0 289.893 36.719 A 96.936 96.936 0 0 0 290.625 31.738 A 92.459 92.459 0 0 0 290.704 31.063 Q 290.932 29.036 291.016 27.441 A 26.368 26.368 0 0 0 290.327 26.212 A 21.739 21.739 0 0 0 288.916 24.121 A 222.233 222.233 0 0 0 286.67 21.24 A 26.835 26.835 0 0 1 284.619 18.262 A 13.405 13.405 0 0 1 283.849 16.745 A 17.062 17.062 0 0 1 283.105 14.648 A 8.441 8.441 0 0 0 282.779 14.75 A 6.755 6.755 0 0 0 278.711 18.311 A 19.867 19.867 0 0 0 277.539 21.313 A 26.071 26.071 0 0 0 276.758 24.756 Q 276.172 28.418 275.928 32.471 A 84.29 84.29 0 0 1 275.924 32.534 Q 275.802 34.525 275.598 36.316 A 52.441 52.441 0 0 1 275.098 39.746 Q 274.579 39.642 274.308 39.732 A 0.391 0.391 0 0 0 274.023 40.039 A 4.291 4.291 0 0 1 274.168 40.512 Q 274.249 40.837 274.299 41.22 A 9.404 9.404 0 0 1 274.365 42.041 A 8.775 8.775 0 0 1 274.372 42.392 Q 274.372 43.45 274.121 44.58 A 14.959 14.959 0 0 1 273.291 47.168 Q 272.754 48.438 272.07 49.121 A 26.994 26.994 0 0 1 271.87 51.317 A 37.101 37.101 0 0 1 271.484 53.662 A 11.615 11.615 0 0 1 269.434 58.301 A 2.534 2.534 0 0 1 269.534 58.465 Q 269.81 58.956 269.727 59.375 A 5.197 5.197 0 0 1 269.72 59.406 A 5.581 5.581 0 0 1 269.434 60.352 A 17.31 17.31 0 0 0 269.238 60.864 A 22.027 22.027 0 0 0 269.043 61.426 Q 268.893 61.874 268.973 62.495 A 4.411 4.411 0 0 0 269.043 62.891 A 1.12 1.12 0 0 0 269.003 62.853 Q 268.784 62.654 268.622 62.742 A 0.293 0.293 0 0 0 268.555 62.793 A 0.837 0.837 0 0 0 268.448 62.926 Q 268.386 63.019 268.338 63.138 A 1.851 1.851 0 0 0 268.262 63.379 A 14.075 14.075 0 0 1 268.249 63.431 Q 268.202 63.616 268.144 63.822 A 23.849 23.849 0 0 1 268.018 64.258 A 3.596 3.596 0 0 1 267.98 64.375 Q 267.895 64.629 267.793 64.791 A 0.855 0.855 0 0 1 267.676 64.941 A 20.804 20.804 0 0 1 267.84 65.239 Q 268.323 66.131 268.584 66.836 A 6.017 6.017 0 0 1 268.799 67.529 A 3.106 3.106 0 0 0 268.811 67.577 Q 268.987 68.268 269.533 69.111 A 11.058 11.058 0 0 0 270.117 69.922 Q 269.526 69.584 269.373 70.122 A 1.277 1.277 0 0 0 269.336 70.312 Q 269.244 71.045 269.668 71.005 A 0.577 0.577 0 0 0 269.727 70.996 Q 269.727 71.191 270.117 71.436 A 97.495 97.495 0 0 1 270.376 71.598 Q 270.512 71.684 270.663 71.779 A 184.447 184.447 0 0 1 271.045 72.021 Q 271.582 72.363 272.07 72.803 A 1.809 1.809 0 0 1 272.211 72.944 A 1.293 1.293 0 0 1 272.559 73.828 A 11.505 11.505 0 0 0 273.57 74.303 Q 274.157 74.542 274.687 74.667 A 4.769 4.769 0 0 0 275.781 74.805 Q 277.148 74.805 278.32 74.365 A 14.223 14.223 0 0 0 280.566 73.291 A 9.273 9.273 0 0 1 281.488 72.816 A 11.268 11.268 0 0 1 283.008 72.266 Q 283.121 71.983 283.103 71.766 A 0.585 0.585 0 0 0 283.008 71.484 A 2.824 2.824 0 0 1 282.885 71.283 A 2.303 2.303 0 0 1 282.715 70.898 A 0.975 0.975 0 0 0 282.915 70.878 Q 283.33 70.791 283.746 70.343 A 3.939 3.939 0 0 0 284.082 69.922 Q 284.766 68.945 285.352 67.725 A 25.496 25.496 0 0 0 285.764 66.823 A 20.984 20.984 0 0 0 286.328 65.381 Q 286.636 64.495 286.701 64.125 A 0.968 0.968 0 0 0 286.719 63.965 A 34.389 34.389 0 0 1 286.847 63.886 Q 287.761 63.329 289.035 62.628 A 102.555 102.555 0 0 1 289.99 62.109 A 78.574 78.574 0 0 1 291.27 61.438 A 92.641 92.641 0 0 1 294.287 59.961 Q 296.582 58.887 299.023 58.105 A 24.521 24.521 0 0 1 300.679 57.638 A 20.137 20.137 0 0 1 303.711 57.129 A 0.262 0.262 0 0 1 303.71 57.143 Q 303.704 57.265 303.599 58.01 A 130.303 130.303 0 0 1 303.564 58.252 A 31.63 31.63 0 0 1 303.394 59.314 A 39.292 39.292 0 0 1 303.174 60.449 A 44.873 44.873 0 0 0 302.954 61.572 A 33.636 33.636 0 0 0 302.783 62.598 Q 302.637 63.574 302.637 63.672 Q 302.539 66.016 303.711 67.822 A 52.326 52.326 0 0 1 304.912 69.771 A 72.024 72.024 0 0 1 306.152 71.973 A 6.406 6.406 0 0 1 306.682 72.157 A 5.297 5.297 0 0 1 307.861 72.803 A 24.655 24.655 0 0 0 309.375 73.828 A 105.409 105.409 0 0 0 309.792 73.68 A 116.993 116.993 0 0 0 312.793 72.559 A 10.74 10.74 0 0 0 315.918 70.703 Q 317.285 69.531 318.066 67.871 Q 318.73 66.46 318.689 64.414 Z M 421.387 21.289 L 421.387 22.461 A 8.896 8.896 0 0 1 423.291 24.951 A 25.303 25.303 0 0 1 424.442 27.529 A 28.296 28.296 0 0 1 424.609 27.979 L 425.781 31.201 A 23.838 23.838 0 0 0 427.148 34.277 A 3.568 3.568 0 0 0 427.041 34.582 Q 426.996 34.735 426.974 34.869 A 1.482 1.482 0 0 0 426.953 35.107 A 1.828 1.828 0 0 0 426.997 35.496 A 2.484 2.484 0 0 0 427.1 35.84 A 7.193 7.193 0 0 1 427.344 36.621 A 1.531 1.531 0 0 1 427.379 36.82 Q 427.415 37.14 427.357 37.601 A 5.978 5.978 0 0 1 427.344 37.695 Q 427.051 41.992 424.561 44.629 A 20.161 20.161 0 0 1 419.418 48.533 A 23.257 23.257 0 0 1 418.555 48.975 A 47.567 47.567 0 0 1 411.782 51.631 A 52.77 52.77 0 0 1 411.035 51.855 Q 407.031 53.027 403.809 54.395 A 0.65 0.65 0 0 0 403.824 54.542 Q 403.871 54.743 404.063 54.778 A 0.489 0.489 0 0 0 404.15 54.785 A 0.335 0.335 0 0 1 404.267 54.804 Q 404.473 54.88 404.395 55.273 Q 406.738 56.738 408.105 57.617 Q 409.473 58.496 410.693 59.082 A 18.67 18.67 0 0 0 412.634 59.879 A 21.442 21.442 0 0 0 413.33 60.107 A 29.795 29.795 0 0 0 414.108 60.336 Q 415.381 60.693 417.285 61.133 A 781.904 781.904 0 0 1 418.484 61.411 Q 419.649 61.681 420.515 61.887 A 210.923 210.923 0 0 1 421.24 62.061 Q 422.656 62.402 423.828 62.646 Q 425 62.891 426.221 63.037 A 55.102 55.102 0 0 0 426.895 63.113 Q 427.657 63.195 428.691 63.29 A 214.452 214.452 0 0 0 429.688 63.379 Q 430.566 64.258 431.201 65.479 A 8.532 8.532 0 0 1 431.834 67.043 A 7.308 7.308 0 0 1 432.031 67.92 Q 432.161 68.734 432.161 69.504 A 8.764 8.764 0 0 1 432.129 70.264 Q 432.037 71.323 431.511 71.991 A 2.474 2.474 0 0 1 431.445 72.07 Q 431.538 72.348 431.849 72.319 A 0.734 0.734 0 0 0 431.885 72.314 Q 432.227 72.266 432.617 72.363 Q 432.031 72.754 431.641 73.34 L 430.859 74.512 A 5.506 5.506 0 0 1 430.16 75.367 A 5.014 5.014 0 0 1 429.98 75.537 Q 429.492 75.977 428.613 76.074 A 9.17 9.17 0 0 1 426.429 76.61 Q 424.112 76.899 421.13 76.25 A 24.305 24.305 0 0 1 420.996 76.221 Q 416.406 75.195 409.375 72.461 Q 405.859 71.094 403.662 70.068 A 40.535 40.535 0 0 1 401.731 69.107 Q 400.837 68.63 400.07 68.154 A 23.794 23.794 0 0 1 399.854 68.018 Q 398.242 66.992 396.924 65.82 Q 396.017 65.015 394.857 63.978 A 1875.13 1875.13 0 0 1 393.75 62.988 A 101.506 101.506 0 0 1 393.228 64.822 Q 392.646 66.792 392.145 68.134 A 23.156 23.156 0 0 1 391.846 68.896 A 15.551 15.551 0 0 1 390.808 70.935 Q 390.186 71.973 389.355 73.047 Q 388.396 72.899 387.883 73.142 A 1.009 1.009 0 0 0 387.598 73.34 A 7.026 7.026 0 0 1 386.523 74.219 Q 385.645 74.414 385.254 74.219 A 3.834 3.834 0 0 1 384.824 73.97 A 3.13 3.13 0 0 1 384.57 73.779 A 3.755 3.755 0 0 0 384.286 73.566 Q 384.135 73.463 383.959 73.36 A 6.732 6.732 0 0 0 383.838 73.291 A 1.57 1.57 0 0 0 383.493 73.155 Q 383.103 73.047 382.52 73.047 A 16.407 16.407 0 0 0 382.228 72.019 A 14.037 14.037 0 0 0 382.08 71.582 Q 381.844 70.92 380.828 71.082 A 3.191 3.191 0 0 0 380.762 71.094 Q 380.936 70.395 380.877 69.891 A 1.898 1.898 0 0 0 380.859 69.775 A 7.939 7.939 0 0 0 380.734 69.202 A 6.201 6.201 0 0 0 380.615 68.799 A 8.849 8.849 0 0 1 380.371 67.92 A 1.373 1.373 0 0 1 380.342 67.711 Q 380.322 67.401 380.417 66.994 A 4.263 4.263 0 0 1 380.469 66.797 A 0.664 0.664 0 0 1 379.987 66.587 Q 379.818 66.418 379.688 66.113 A 13.311 13.311 0 0 0 379.052 64.832 A 14.548 14.548 0 0 0 379.004 64.746 A 182.172 182.172 0 0 1 379.297 63.037 A 153.507 153.507 0 0 1 379.59 61.426 A 25.25 25.25 0 0 1 380.062 59.37 A 21.688 21.688 0 0 1 380.322 58.496 A 28.333 28.333 0 0 0 381.055 55.762 A 4.39 4.39 0 0 0 381.152 54.839 Q 381.152 54.171 380.952 53.479 A 5.941 5.941 0 0 0 380.762 52.93 A 0.826 0.826 0 0 0 380.847 52.986 Q 381.133 53.15 381.302 52.872 A 0.79 0.79 0 0 0 381.348 52.783 A 2.859 2.859 0 0 0 381.475 52.43 Q 381.578 52.081 381.641 51.611 Q 381.738 50.879 381.738 50.146 A 9.092 9.092 0 0 0 381.725 49.642 Q 381.712 49.413 381.687 49.215 A 4.133 4.133 0 0 0 381.641 48.926 A 40.465 40.465 0 0 0 383.252 43.701 Q 383.887 41.016 384.424 38.379 A 204.963 204.963 0 0 1 385.547 33.203 A 25.939 25.939 0 0 1 386.537 29.897 A 22.419 22.419 0 0 1 387.109 28.516 Q 387.847 28.382 388.699 28.547 A 6.372 6.372 0 0 1 389.502 28.76 A 5.423 5.423 0 0 1 390.096 28.994 Q 390.893 29.37 391.113 29.883 Q 393.652 27.93 395.605 25.146 Q 397.559 22.363 399.609 19.727 Q 401.66 17.09 404.15 15.039 A 10.505 10.505 0 0 1 407.987 13.062 A 14.187 14.187 0 0 1 410.449 12.598 A 60.836 60.836 0 0 0 412.923 14.354 A 75.9 75.9 0 0 0 414.795 15.576 A 12.74 12.74 0 0 1 418.75 19.531 A 8.599 8.599 0 0 1 419.387 19.882 Q 419.766 20.114 420.068 20.361 A 10.092 10.092 0 0 0 420.585 20.755 Q 420.857 20.95 421.172 21.153 A 18.282 18.282 0 0 0 421.387 21.289 Z M 160.938 46.094 L 160.449 47.559 A 5.497 5.497 0 0 0 159.371 48.821 A 6.249 6.249 0 0 0 159.277 48.975 A 79.957 79.957 0 0 0 158.301 50.684 A 20.344 20.344 0 0 1 157.227 52.734 A 7.521 7.521 0 0 1 155.762 54.492 A 19.668 19.668 0 0 1 155.457 55.346 Q 155.126 56.202 154.796 56.769 A 5.81 5.81 0 0 1 154.785 56.787 A 6.341 6.341 0 0 1 154.38 57.387 Q 154.154 57.687 153.865 58.013 A 15.696 15.696 0 0 1 153.223 58.691 A 16.746 16.746 0 0 1 151.994 61.978 Q 150.778 64.462 148.633 67.188 A 4.727 4.727 0 0 1 148.136 68.819 A 5.385 5.385 0 0 1 148.096 68.896 A 25.931 25.931 0 0 1 147.168 70.508 A 10.296 10.296 0 0 0 146.899 70.934 A 12.16 12.16 0 0 0 146.777 71.143 A 21.52 21.52 0 0 0 146.686 71.304 Q 146.558 71.533 146.484 71.68 L 146.289 72.656 A 8.08 8.08 0 0 1 145.58 73.628 A 6.916 6.916 0 0 1 145.215 74.023 L 144.141 75.098 Q 143.978 75.341 143.613 75.72 A 12.133 12.133 0 0 1 143.457 75.879 L 141.992 76.465 A 12.395 12.395 0 0 1 138.271 75.396 Q 134.765 73.705 133.532 69.701 A 13.047 13.047 0 0 1 133.301 68.848 L 133.398 67.871 A 9.412 9.412 0 0 0 133.722 66.913 A 10.276 10.276 0 0 0 133.74 66.846 A 20.186 20.186 0 0 1 133.965 66.084 A 23.566 23.566 0 0 1 134.082 65.723 A 30.067 30.067 0 0 1 135.01 62.988 Q 135.547 61.621 136.621 60.547 A 6.583 6.583 0 0 1 136.749 60.153 Q 136.987 59.485 137.5 58.35 Q 138.171 56.863 139.784 53.918 A 182.99 182.99 0 0 1 139.844 53.809 A 890.263 890.263 0 0 0 140.491 52.698 Q 141.12 51.615 141.594 50.792 A 260.848 260.848 0 0 0 141.992 50.098 Q 142.773 48.73 143.262 47.949 A 13.915 13.915 0 0 0 140.918 45.117 A 63.386 63.386 0 0 1 139.465 42.142 A 52.57 52.57 0 0 1 138.721 40.43 A 46.403 46.403 0 0 1 138.087 38.814 Q 137.61 37.524 137.305 36.426 A 21.402 21.402 0 0 0 137.218 35.529 Q 137.165 35.09 137.098 34.711 A 10.333 10.333 0 0 0 137.012 34.277 A 82.76 82.76 0 0 1 136.816 33.374 A 96.273 96.273 0 0 1 136.621 32.422 A 25.499 25.499 0 0 1 136.133 30.273 A 12.37 12.37 0 0 1 135.941 28.319 A 13.847 13.847 0 0 1 135.937 28.027 A 3.747 3.747 0 0 1 135.585 27.429 A 2.744 2.744 0 0 1 135.352 26.66 L 135.547 25.684 A 2.087 2.087 0 0 0 135.684 25.203 Q 135.778 24.642 135.645 23.877 A 32.076 32.076 0 0 0 135.192 21.728 A 34.997 34.997 0 0 0 135.156 21.582 A 239.981 239.981 0 0 0 134.949 20.557 A 316.071 316.071 0 0 0 134.717 19.434 A 8.188 8.188 0 0 1 134.542 17.759 A 8.06 8.06 0 0 1 134.57 17.09 Q 134.668 15.918 135.205 14.893 Q 135.702 13.944 136.827 13.204 A 7.237 7.237 0 0 1 137.012 13.086 L 138.672 12.988 A 97.594 97.594 0 0 0 140.173 13.805 A 88.044 88.044 0 0 0 140.381 13.916 A 25.931 25.931 0 0 1 141.992 14.844 A 63.24 63.24 0 0 1 143.549 15.576 A 56.25 56.25 0 0 1 144.043 15.82 Q 145.02 16.309 146.094 17.09 L 146.777 18.457 L 148.047 19.531 L 148.047 20.605 Q 148.145 20.996 148.145 21.68 A 6.404 6.404 0 0 0 148.162 22.172 Q 148.221 22.932 148.479 23.193 A 0.504 0.504 0 0 0 148.535 23.242 L 148.926 24.414 A 11.42 11.42 0 0 0 149.091 26.382 A 10.116 10.116 0 0 0 149.219 27.002 Q 149.512 28.223 149.805 29.297 A 105.968 105.968 0 0 1 150.244 30.963 A 119.626 119.626 0 0 1 150.391 31.543 Q 150.668 32.653 150.508 33.937 A 8.245 8.245 0 0 1 150.488 34.082 A 4.228 4.228 0 0 0 151.041 33.754 A 3.264 3.264 0 0 0 151.465 33.398 A 1.876 1.876 0 0 1 151.636 33.246 Q 151.746 33.16 151.855 33.105 Q 152.039 33.014 152.222 32.837 A 2.16 2.16 0 0 0 152.246 32.812 L 158.008 25 L 157.813 24.023 L 159.863 22.07 A 63.653 63.653 0 0 1 160.984 20.976 A 54.897 54.897 0 0 1 161.377 20.605 A 7.532 7.532 0 0 0 162.338 19.525 A 6.699 6.699 0 0 0 162.598 19.141 L 163.672 18.359 A 13.23 13.23 0 0 1 172.201 12.382 A 16.373 16.373 0 0 1 172.559 12.305 L 173.926 12.109 L 174.316 13.379 A 3.498 3.498 0 0 0 174.94 14.435 Q 175.336 14.906 175.928 15.332 A 29.321 29.321 0 0 0 178.516 16.992 L 179.395 17.578 A 8.639 8.639 0 0 1 179.608 18.036 Q 179.883 18.677 179.883 19.043 A 4.204 4.204 0 0 1 179.858 19.507 A 3.142 3.142 0 0 1 179.785 19.922 L 180.176 20.898 Q 179.68 22.386 179.046 23.362 A 5.321 5.321 0 0 1 178.271 24.316 A 40.539 40.539 0 0 1 176.887 25.583 A 34.196 34.196 0 0 1 176.074 26.27 A 198.541 198.541 0 0 1 175.232 27.014 A 148.655 148.655 0 0 1 174.463 27.686 Q 173.73 28.32 173.34 29.297 L 172.656 30.078 A 6.473 6.473 0 0 0 171.255 31.136 A 4.906 4.906 0 0 0 170.02 33.203 L 169.727 34.375 L 168.555 34.375 A 0.126 0.126 0 0 0 168.503 34.39 Q 168.389 34.445 168.134 34.699 A 6.546 6.546 0 0 0 168.115 34.717 Q 167.818 35.014 167.264 36.084 A 26.525 26.525 0 0 0 167.09 36.426 A 31.506 31.506 0 0 1 166.809 36.82 Q 166.342 37.466 166.113 37.695 L 165.625 38.184 A 4.949 4.949 0 0 1 165.438 38.775 A 4.407 4.407 0 0 1 165.381 38.916 A 26.952 26.952 0 0 0 165.264 39.193 Q 165.213 39.317 165.156 39.455 A 52.971 52.971 0 0 0 165.039 39.746 A 21.132 21.132 0 0 0 164.498 40.306 Q 163.749 41.113 163.506 41.59 A 1.735 1.735 0 0 0 163.477 41.65 A 42.675 42.675 0 0 1 163.17 42.3 Q 163.005 42.641 162.818 43.016 A 68.544 68.544 0 0 1 162.793 43.066 A 64.143 64.143 0 0 0 162.234 44.211 A 57.052 57.052 0 0 0 162.061 44.58 A 4.205 4.205 0 0 1 161.679 45.227 Q 161.473 45.52 161.199 45.82 A 8.134 8.134 0 0 1 160.938 46.094 Z M 31.25 38.379 L 31.152 38.477 Q 29.785 40.43 28.516 42.578 Q 29.199 42.48 29.834 42.48 A 9.034 9.034 0 0 0 30.814 42.426 A 10.273 10.273 0 0 0 31.152 42.383 A 167.917 167.917 0 0 0 34.448 42.163 A 133.95 133.95 0 0 0 37.5 41.895 Q 40.43 41.602 43.848 40.918 A 261.244 261.244 0 0 0 42.139 33.545 A 237.325 237.325 0 0 0 40.137 25.977 L 39.648 26.953 A 67.69 67.69 0 0 0 34.961 32.617 A 54.471 54.471 0 0 0 32.91 35.571 A 40.647 40.647 0 0 0 31.25 38.379 Z M 405.322 32.324 A 18.344 18.344 0 0 0 407.715 29.492 Q 408.846 29.849 409.922 30.678 A 10.875 10.875 0 0 1 411.279 31.934 Q 412.988 33.789 413.379 36.816 A 2115.684 2115.684 0 0 1 409.961 38.22 A 2494.175 2494.175 0 0 1 406.348 39.697 A 31.348 31.348 0 0 1 403.549 40.692 A 24.781 24.781 0 0 1 399.219 41.602 Q 399.609 39.453 400.586 37.842 A 18.113 18.113 0 0 1 402.783 34.912 A 63.262 63.262 0 0 1 405.322 32.324 Z" vector-effect="non-scaling-stroke"/></g></svg>