<svg width="265.723" height="111.035" viewBox="0 0 265.723 111.035" xmlns="http://www.w3.org/2000/svg"><g id="svgGroup" stroke-linecap="round" fill-rule="evenodd" font-size="9pt" stroke="#000" stroke-width="0.25mm" fill="#ffffff" style="stroke:#000;stroke-width:0.25mm;fill:#ffffff"><path d="M 206.104 76.172 L 213.135 70.752 A 20.123 20.123 0 0 0 215.745 68.385 Q 216.905 67.143 218.029 65.594 A 36.895 36.895 0 0 0 218.774 64.526 A 69.668 69.668 0 0 0 221.448 60.205 A 90.942 90.942 0 0 0 224.048 55.298 A 166.907 166.907 0 0 0 227.224 48.454 A 201.143 201.143 0 0 0 229.102 44.019 Q 231.592 37.939 234.082 31.494 Q 235.84 26.807 237.671 22.192 A 196.226 196.226 0 0 1 240.459 15.518 A 174.277 174.277 0 0 1 241.406 13.403 A 157.98 157.98 0 0 1 243.292 9.412 A 123.768 123.768 0 0 1 245.142 5.786 A 57.003 57.003 0 0 1 246.674 3.077 Q 247.454 1.786 248.221 0.7 A 30.586 30.586 0 0 1 248.73 0 A 64.202 64.202 0 0 1 252.384 2.471 A 46.855 46.855 0 0 1 255.542 4.98 A 31.102 31.102 0 0 1 260.522 10.474 A 24.142 24.142 0 0 1 263.214 15.472 A 28.583 28.583 0 0 1 263.892 17.358 A 37.787 37.787 0 0 1 264.855 21.021 Q 265.259 22.916 265.545 25.058 A 66.058 66.058 0 0 1 265.723 26.514 Q 262.5 32.666 259.717 39.111 A 1746.752 1746.752 0 0 0 254.15 52.148 Q 250.635 60.645 246.899 69.067 A 150.196 150.196 0 0 1 238.623 85.107 Q 234.082 92.725 228.442 99.097 Q 222.803 105.469 215.479 109.863 A 23.862 23.862 0 0 0 214.023 109.595 Q 213.317 109.49 212.697 109.449 A 11.252 11.252 0 0 0 211.963 109.424 A 9.868 9.868 0 0 0 210.826 109.486 Q 210.244 109.553 209.749 109.695 A 5.113 5.113 0 0 0 209.253 109.863 Q 208.154 110.303 207.275 111.035 A 23.051 23.051 0 0 1 197.607 102.759 Q 193.945 97.266 190.43 90.527 A 24.648 24.648 0 0 0 189.478 88.55 A 86.966 86.966 0 0 0 188.667 87.08 A 99.139 99.139 0 0 0 188.379 86.572 L 185.889 82.031 L 184.424 79.248 L 182.373 81.152 L 179.297 83.936 L 177.539 85.693 A 293.978 293.978 0 0 1 168.311 93.97 A 88.34 88.34 0 0 1 158.496 101.294 A 52.614 52.614 0 0 1 147.583 106.641 A 38.874 38.874 0 0 1 136.84 108.772 A 44.295 44.295 0 0 1 135.205 108.838 A 90.259 90.259 0 0 0 134.121 108.305 Q 133.606 108.056 133.143 107.841 A 53.976 53.976 0 0 0 133.081 107.813 A 65.866 65.866 0 0 1 131.471 107.043 A 59.7 59.7 0 0 1 131.25 106.934 Q 128.671 105.7 126.778 104.552 A 30.309 30.309 0 0 1 125.684 103.857 Q 123.535 102.425 120.686 99.452 A 61.359 61.359 0 0 1 120.557 99.316 A 94.86 94.86 0 0 0 119.458 96.982 A 84.371 84.371 0 0 0 119.092 96.24 A 36.237 36.237 0 0 0 118.359 94.849 A 28.088 28.088 0 0 0 117.627 93.604 A 407.492 407.492 0 0 1 116.173 90.668 Q 115.513 89.32 114.93 88.102 A 240.288 240.288 0 0 1 114.551 87.305 Q 113.232 84.521 112.061 80.859 A 319.877 319.877 0 0 1 112.321 79.404 Q 112.775 76.904 113.599 72.51 A 519.466 519.466 0 0 1 114.789 66.376 A 676.405 676.405 0 0 1 116.162 59.692 A 629.115 629.115 0 0 1 119.312 45.557 Q 120.601 40.061 121.934 35.768 A 90.36 90.36 0 0 1 122.754 33.252 A 345.032 345.032 0 0 1 124.457 28.564 A 420.148 420.148 0 0 1 126.343 23.584 A 77.28 77.28 0 0 1 129.27 16.915 A 66.145 66.145 0 0 1 130.737 14.136 A 46.098 46.098 0 0 1 133.246 10.126 A 35.293 35.293 0 0 1 135.937 6.738 A 14.079 14.079 0 0 1 138.087 4.781 Q 139.929 3.442 141.943 3.076 A 8.63 8.63 0 0 0 142.844 4.106 A 6.516 6.516 0 0 0 143.848 4.907 Q 144.725 5.471 145.495 5.767 A 6.053 6.053 0 0 0 145.752 5.859 A 61.819 61.819 0 0 0 147.903 8.725 Q 149.012 10.112 150.09 11.27 A 35.829 35.829 0 0 0 150.586 11.792 Q 152.93 14.209 156.152 16.553 A 79.142 79.142 0 0 1 155.112 21.033 Q 154.498 23.381 153.697 25.95 A 129.001 129.001 0 0 1 153.589 26.294 Q 151.904 31.641 150.073 37.061 A 1255.46 1255.46 0 0 1 146.925 46.265 A 1134.454 1134.454 0 0 1 146.484 47.534 A 206.167 206.167 0 0 0 145.269 51.129 Q 144.342 53.961 143.701 56.25 A 88.264 88.264 0 0 0 142.932 58.982 Q 142.438 60.846 141.943 62.988 A 122.418 122.418 0 0 0 141.384 65.591 Q 140.909 67.914 140.405 70.752 A 215.829 215.829 0 0 0 139.618 75.513 A 278.632 278.632 0 0 0 138.867 80.713 Q 140.41 80.272 142.244 79.168 A 25.038 25.038 0 0 0 143.481 78.369 A 53.842 53.842 0 0 0 147.687 75.181 A 48.803 48.803 0 0 0 148.242 74.707 A 76.621 76.621 0 0 0 153.369 70.02 Q 156.738 66.65 159.082 63.867 Q 161.426 61.084 163.403 58.081 A 145.318 145.318 0 0 0 165.417 54.932 A 181.486 181.486 0 0 0 167.505 51.489 A 2774.923 2774.923 0 0 0 169.211 48.602 Q 170.728 46.033 172.559 42.92 A 447.486 447.486 0 0 0 175.25 38.525 A 532.485 532.485 0 0 0 178.052 33.838 A 203.065 203.065 0 0 1 183.107 25.715 A 185.22 185.22 0 0 1 183.838 24.609 A 204.232 204.232 0 0 1 187.443 19.374 A 169.005 169.005 0 0 1 189.551 16.479 Q 192.334 12.744 194.678 10.693 Q 196.289 12.305 198.413 14.062 A 13.083 13.083 0 0 0 202.22 16.285 A 12.349 12.349 0 0 0 203.027 16.553 A 47.048 47.048 0 0 0 204.034 18.073 A 34.988 34.988 0 0 0 205.005 19.409 A 328.901 328.901 0 0 1 206.615 21.532 A 296.833 296.833 0 0 1 206.836 21.826 A 1279.749 1279.749 0 0 1 207.953 23.364 A 944.313 944.313 0 0 1 208.96 24.756 A 16.588 16.588 0 0 1 210.356 27.079 A 18.962 18.962 0 0 1 210.645 27.686 Q 210.498 28.857 210.132 30.762 A 3129.757 3129.757 0 0 1 209.747 32.758 A 4071.76 4071.76 0 0 1 209.326 34.937 Q 208.887 37.207 208.374 39.551 A 261.874 261.874 0 0 0 207.533 43.54 A 236.137 236.137 0 0 0 207.422 44.092 A 4744.202 4744.202 0 0 0 206.735 47.186 Q 206.074 50.17 205.608 52.296 A 1048.741 1048.741 0 0 0 205.225 54.053 A 169.394 169.394 0 0 0 204.886 55.646 Q 204.528 57.37 204.316 58.611 A 42.833 42.833 0 0 0 204.199 59.326 A 48.174 48.174 0 0 0 204.01 60.672 Q 203.879 61.725 203.833 62.549 A 35.301 35.301 0 0 0 203.801 63.272 Q 203.773 64.084 203.764 65.169 A 128.005 128.005 0 0 0 203.76 66.211 A 21.35 21.35 0 0 0 204.053 69.727 Q 204.346 71.338 204.712 73.022 Q 205.078 74.707 206.104 76.172 Z M 2.197 97.998 L 0 95.801 L 1.904 94.336 L 2.051 91.26 A 357.468 357.468 0 0 1 8.628 76.183 A 325.583 325.583 0 0 1 9.595 74.121 A 1253.053 1253.053 0 0 1 17.195 58.354 A 1368.027 1368.027 0 0 1 17.725 57.275 Q 19.043 54.492 20.435 51.709 A 155.025 155.025 0 0 0 23.145 45.996 A 4.981 4.981 0 0 1 23.004 45.016 A 5.739 5.739 0 0 1 22.998 44.751 A 3.651 3.651 0 0 1 23.046 44.179 Q 23.091 43.901 23.175 43.593 A 7.38 7.38 0 0 1 23.291 43.213 A 67.804 67.804 0 0 0 24.716 41.098 Q 25.399 40.039 25.959 39.07 A 36.254 36.254 0 0 0 26.587 37.939 A 111.476 111.476 0 0 0 29.004 33.105 Q 30.322 30.176 31.86 27.246 A 30.804 30.804 0 0 1 34.621 22.934 A 35.758 35.758 0 0 1 35.742 21.533 L 36.768 20.068 L 38.379 20.215 A 9.438 9.438 0 0 1 39.542 19.73 A 10.362 10.362 0 0 1 39.624 19.702 A 3.736 3.736 0 0 1 40.17 19.568 Q 40.45 19.52 40.775 19.499 A 8.244 8.244 0 0 1 41.309 19.482 L 43.945 19.922 A 25.661 25.661 0 0 0 52.398 13.68 A 29.284 29.284 0 0 0 52.515 13.55 Q 56.25 9.375 60.059 3.516 L 61.816 1.025 L 64.16 2.49 Q 64.893 2.93 66.504 3.369 A 60.559 60.559 0 0 1 68.789 4.043 A 70.699 70.699 0 0 1 69.873 4.395 A 77.497 77.497 0 0 1 75.879 6.079 A 15.157 15.157 0 0 1 77.891 6.886 Q 78.925 7.395 79.722 8.024 A 7.941 7.941 0 0 1 80.42 8.643 L 81.152 9.961 A 236.852 236.852 0 0 1 81.427 11.499 A 174.741 174.741 0 0 1 81.665 12.891 A 50.187 50.187 0 0 0 82.178 15.527 A 143.688 143.688 0 0 1 83.203 21.606 A 55.434 55.434 0 0 1 83.569 24.774 A 73.563 73.563 0 0 1 83.789 28.271 Q 84.521 31.201 85.181 34.204 Q 85.84 37.207 86.426 40.137 A 164.652 164.652 0 0 0 87.607 46.303 A 145.992 145.992 0 0 0 88.037 48.267 Q 88.916 52.148 90.381 55.664 A 23.153 23.153 0 0 1 90.889 55.669 Q 91.901 55.692 92.139 55.811 A 10.959 10.959 0 0 1 94.172 55.198 A 15.097 15.097 0 0 1 96.24 54.932 L 98.145 54.785 L 98.73 56.543 A 5.23 5.23 0 0 0 99.106 57.037 A 6.686 6.686 0 0 0 99.463 57.422 A 8.581 8.581 0 0 0 100.004 57.916 A 10.981 10.981 0 0 0 100.488 58.301 Q 102.612 58.434 103.714 59.108 A 3.127 3.127 0 0 1 103.931 59.253 A 19.947 19.947 0 0 1 104.82 59.942 Q 105.217 60.269 105.548 60.583 A 11.031 11.031 0 0 1 105.762 60.791 A 8.126 8.126 0 0 0 106.002 61.021 Q 106.219 61.221 106.494 61.45 A 7.072 7.072 0 0 0 106.748 61.653 Q 107.023 61.861 107.227 61.963 L 109.863 62.988 L 108.398 65.771 Q 106.787 68.848 103.491 71.777 A 30.217 30.217 0 0 1 96.094 76.611 A 11.534 11.534 0 0 1 96.332 77.6 A 8.665 8.665 0 0 1 96.46 78.516 Q 96.533 79.395 96.826 80.566 A 74.992 74.992 0 0 1 97.732 86.253 A 82.047 82.047 0 0 1 97.778 86.646 A 25.162 25.162 0 0 1 97.945 89.554 A 27.895 27.895 0 0 1 97.705 93.164 A 38.198 38.198 0 0 1 95.674 97.61 A 31.633 31.633 0 0 1 94.263 99.976 A 27.509 27.509 0 0 1 89.575 105.396 A 24.128 24.128 0 0 1 83.496 109.351 A 18.564 18.564 0 0 1 76.465 111.035 Q 74.414 110.596 73.462 110.01 A 19.111 19.111 0 0 1 72.565 109.424 A 14.683 14.683 0 0 1 71.777 108.838 Q 70.605 107.959 69.873 107.666 L 67.969 106.787 L 68.555 104.59 A 3.407 3.407 0 0 0 68.7 104.096 Q 68.758 103.825 68.758 103.571 A 2.011 2.011 0 0 0 68.481 102.539 A 4.749 4.749 0 0 0 68.119 102.015 Q 67.528 101.26 66.357 100.195 Q 65.771 99.756 65.332 99.243 Q 64.893 98.73 64.307 98.145 L 61.377 94.775 L 66.211 93.457 A 23.705 23.705 0 0 0 68.225 92.83 Q 70.972 91.827 72.07 90.454 Q 73.413 88.776 73.279 84.697 A 25.846 25.846 0 0 0 73.242 83.936 Q 70.246 83.336 68.132 83.571 A 8.653 8.653 0 0 0 67.236 83.716 Q 64.893 84.229 62.549 84.814 Q 59.18 85.693 55.957 86.353 A 32.275 32.275 0 0 1 51.756 86.915 A 40.31 40.31 0 0 1 48.926 87.012 A 31.776 31.776 0 0 1 45.531 86.822 A 38.299 38.299 0 0 1 43.652 86.572 L 42.041 86.426 L 41.602 84.814 Q 41.602 84.547 41.296 84.218 A 2.395 2.395 0 0 0 41.235 84.155 L 40.576 83.496 Q 40.084 82.906 39.46 82.051 A 55.371 55.371 0 0 1 38.818 81.152 A 3.625 3.625 0 0 1 38.171 79.2 Q 38.148 78.71 38.233 78.171 A 6.73 6.73 0 0 1 38.379 77.49 Q 37.354 75.879 37.207 74.121 Q 36.621 75.293 36.255 76.392 A 52.856 52.856 0 0 0 35.747 77.998 A 46.673 46.673 0 0 0 35.596 78.516 L 35.01 80.42 L 33.105 80.713 Q 32.813 81.006 32.593 81.592 A 2.712 2.712 0 0 0 32.523 81.801 Q 32.433 82.12 32.474 82.333 A 0.532 0.532 0 0 0 32.52 82.471 L 33.105 84.082 L 31.641 85.4 Q 31.348 85.84 30.908 86.133 Q 30.507 86.4 30.228 86.667 A 3.425 3.425 0 0 0 30.176 86.719 A 20.29 20.29 0 0 1 29.378 89.772 A 19.144 19.144 0 0 1 29.37 89.795 A 71.385 71.385 0 0 1 28.271 92.725 A 421.312 421.312 0 0 0 27.046 96.714 A 380.041 380.041 0 0 0 26.88 97.266 A 15.225 15.225 0 0 0 26.221 101.66 L 25.635 103.564 A 5.246 5.246 0 0 1 24.699 104.694 A 4.502 4.502 0 0 1 23.804 105.322 Q 22.705 105.908 21.68 106.348 A 12.482 12.482 0 0 0 21.002 106.641 Q 20.068 107.08 19.629 107.52 L 19.189 109.424 L 16.992 109.717 Q 15.088 110.156 14.282 110.303 Q 13.502 110.445 12.516 110.449 A 14.206 14.206 0 0 1 12.451 110.449 L 10.547 110.303 A 101.564 101.564 0 0 0 9.709 109.474 Q 8.794 108.58 8.097 107.952 A 28.568 28.568 0 0 0 7.69 107.593 A 11.595 11.595 0 0 0 6.007 106.387 A 13.962 13.962 0 0 0 5.127 105.908 L 4.248 104.736 A 9.711 9.711 0 0 1 3.851 103.837 Q 3.604 103.185 3.516 102.612 Q 3.369 101.66 3.076 100.635 A 12.68 12.68 0 0 0 2.911 99.756 Q 2.637 98.547 2.197 97.998 Z M 46.875 57.568 L 46.729 57.715 A 94.99 94.99 0 0 0 42.773 63.867 A 14.379 14.379 0 0 1 44.331 63.728 A 12.699 12.699 0 0 1 44.751 63.721 A 13.551 13.551 0 0 0 46.22 63.638 A 15.411 15.411 0 0 0 46.729 63.574 Q 51.855 63.281 56.25 62.842 A 88.646 88.646 0 0 0 61.426 62.162 A 114.102 114.102 0 0 0 65.771 61.377 Q 64.6 55.957 63.208 50.317 Q 61.816 44.678 60.205 38.965 L 59.473 40.43 Q 55.811 44.385 52.441 48.926 A 81.707 81.707 0 0 0 49.365 53.357 A 60.97 60.97 0 0 0 46.875 57.568 Z" vector-effect="non-scaling-stroke"/></g></svg>